<svg t="1719374167222" class="icon" viewBox="0 0 1024 1024" version="1.1" xmlns="http://www.w3.org/2000/svg" p-id="8543" width="64" height="64"><path d="M511.914667 85.290667a42.666667 42.666667 0 0 0-42.666667 42.666666v128a42.666667 42.666667 0 0 0 85.333333 0v-128a42.666667 42.666667 0 0 0-42.666666-42.666666z m-170.666667 298.666666a42.666667 42.666667 0 0 0 0 85.333334h341.333333a42.666667 42.666667 0 0 0 0-85.333334h-341.333333z m-128 170.666667a42.666667 42.666667 0 0 0 0 85.333333h597.333333a42.666667 42.666667 0 0 0 0-85.333333h-597.333333z m298.666667 170.666667a42.666667 42.666667 0 0 0-42.666667 42.666666v128a42.666667 42.666667 0 0 0 85.333333 0v-128a42.666667 42.666667 0 0 0-42.666666-42.666666z" fill="currentColor" p-id="8544"></path></svg>