<svg width="18" height="21" viewBox="0 0 18 21" fill="" xmlns="http://www.w3.org/2000/svg">
<path id="icon" d="M3.98881 9.23853H16.387C17.5444 9.23853 17.9947 12.0214 18 15.1193C18.0052 18.2172 16.84 21 15.9157 21H13.0852C12.9779 21 12.9045 20.8924 12.9438 20.7926C13.0774 20.4513 13.3025 19.753 13.203 19.1386C13.0643 18.288 12.771 17.5949 12.771 17.5949C12.771 17.5949 12.9883 18.2224 12.0954 19.3986C11.2785 20.4749 10.5532 20.8609 10.3123 20.9659C10.2625 20.9869 10.2102 21 10.1552 21H1.12688C0.490599 21 -0.0252295 20.4697 0.00095473 19.8239C0.00880999 19.6296 0.0690337 19.4379 0.171152 19.2725L1.44632 17.1408C2.37586 15.5892 2.86551 13.8119 2.86551 12.003V10.37C2.86289 9.74522 3.36824 9.23853 3.98881 9.23853ZM9.58438 5.08789V1.13152C9.58438 0.506689 10.0897 0 10.7129 0C11.3361 0 11.8415 0.506689 11.8415 1.13152V5.08789H16.0519C16.6751 5.08789 17.1804 5.59457 17.1804 6.2194V7.35092C17.1804 7.97575 16.6751 8.48244 16.0519 8.48244H4.77434C4.15115 8.48244 3.6458 7.97575 3.6458 7.35092V6.2194C3.6458 5.59457 4.15115 5.08789 4.77434 5.08789H9.58438Z" fill=""/>
</svg>
