<svg t="1720171120054" class="icon" viewBox="0 0 1024 1024" version="1.1" xmlns="http://www.w3.org/2000/svg" p-id="5119" width="64" height="64"><path d="M234.794667 197.418667L234.666667 288v448.170667a138.666667 138.666667 0 0 0 138.666666 138.666666h367.616a96.042667 96.042667 0 0 1-90.538666 64H373.333333A202.666667 202.666667 0 0 1 170.666667 736.170667V288c0-41.813333 26.752-77.44 64.128-90.581333zM757.333333 85.333333A96 96 0 0 1 853.333333 181.333333v554.666667a96 96 0 0 1-96 96h-384a96 96 0 0 1-96-96v-554.666667A96 96 0 0 1 373.333333 85.333333h384z" fill="currentColor" p-id="5120"></path></svg>