<?xml version="1.0" standalone="no"?><!DOCTYPE svg PUBLIC "-//W3C//DTD SVG 1.1//EN" "http://www.w3.org/Graphics/SVG/1.1/DTD/svg11.dtd"><svg t="1719216420572" class="icon" viewBox="0 0 1024 1024" version="1.1" xmlns="http://www.w3.org/2000/svg" p-id="12619" xmlns:xlink="http://www.w3.org/1999/xlink" width="64" height="64"><path d="M375.4752 870.4H204.8a25.6 25.6 0 0 1-25.6-25.6v-153.728h51.712v-0.1024a98.1248 98.1248 0 0 0 0-196.096v-0.0768H179.2V307.2a25.6 25.6 0 0 1 25.6-25.6h537.6a25.6 25.6 0 0 1 25.6 25.6v537.6a25.6 25.6 0 0 1-25.6 25.6h-170.6752v-49.0752a98.1248 98.1248 0 0 0-196.2496 0V870.4z" p-id="12620"></path><path d="M819.2 486.4a102.4 102.4 0 1 1 0 204.8h-153.6v-204.8h153.6zM386.56 249.6a97.6896 97.6896 0 0 1 195.3536 3.4048l-2.56 146.5088L384 396.1088l2.56-146.5088z"  p-id="12621"></path></svg>