<svg t="1719374202614" class="icon" viewBox="0 0 1024 1024" version="1.1" xmlns="http://www.w3.org/2000/svg" p-id="9545" width="64" height="64"><path d="M312.192 138.688L320 138.752h7.808c15.168-0.192 35.2-0.384 53.44 3.328 23.552 4.8 48.448 16.768 64.576 44.672 7.552 13.12 10.368 27.008 11.648 41.088 1.216 13.248 1.216 29.44 1.216 48.192V480h106.624v-33.28c0-18.752 0-34.944 1.216-48.256 1.28-14.016 4.096-27.904 11.648-41.024 16.128-27.904 40.96-39.872 64.576-44.672 18.24-3.712 38.208-3.52 53.44-3.392a811.968 811.968 0 0 0 15.616 0c15.168-0.128 35.2-0.32 53.44 3.392 23.552 4.8 48.448 16.768 64.512 44.672 7.616 13.12 10.432 27.008 11.712 41.024 1.152 13.312 1.152 29.44 1.152 48.256v33.28h96a32 32 0 0 1 0 64h-96v33.472c0 18.752 0 34.944-1.152 48.256a97.28 97.28 0 0 1-11.648 41.024c-16.128 27.904-40.96 39.872-64.64 44.736-18.176 3.648-38.208 3.456-53.376 3.328a694.72 694.72 0 0 0-15.616 0c-15.232 0.128-35.2 0.32-53.44-3.392-23.616-4.8-48.448-16.768-64.576-44.672a97.344 97.344 0 0 1-11.648-41.024c-1.216-13.312-1.216-29.44-1.216-48.256V544H458.688v204.16c0 18.752 0 34.944-1.28 48.192-1.28 14.08-4.032 27.968-11.584 41.088-16.128 27.904-40.96 39.872-64.64 44.672-18.176 3.712-38.208 3.52-53.376 3.392a693.632 693.632 0 0 0-15.616 0c-15.232 0.128-35.2 0.32-53.44-3.392-23.616-4.8-48.448-16.768-64.576-44.672a97.344 97.344 0 0 1-11.648-41.088c-1.216-13.248-1.216-29.44-1.216-48.192V544h-96a32 32 0 1 1 0-64h96V276.032c0-18.752 0-34.944 1.216-48.192 1.28-14.08 4.096-27.968 11.648-41.088 16.128-27.904 40.96-39.872 64.576-44.672 18.24-3.712 38.208-3.52 53.44-3.392z" fill="#333333" p-id="9546"></path></svg>