<svg t="1719245369884" class="icon" viewBox="0 0 1024 1024" version="1.1" xmlns="http://www.w3.org/2000/svg" p-id="14319" width="200" height="200"><path d="M909.585067 646.212267l15.633066 7.714133a81.92 81.92 0 0 1-0.750933 147.114667l-380.586667 184.5248a68.266667 68.266667 0 0 1-60.2112-0.341334l-370.8928-184.593066a81.92 81.92 0 0 1-0.750933-146.295467l15.9744-8.192 355.669333 177.083733a68.266667 68.266667 0 0 0 60.2112 0.341334l365.704534-177.3568z" p-id="14320"></path><path d="M924.330667 398.9504l11.195733 5.597867a81.92 81.92 0 0 1-0.682667 147.0464l-390.826666 189.508266a68.266667 68.266667 0 0 1-60.2112-0.273066l-380.928-189.6448a81.92 81.92 0 0 1-0.682667-146.295467l11.605333-5.870933 369.8688 184.1152a68.266667 68.266667 0 0 0 60.2112 0.273066l380.450134-184.456533z" p-id="14321"></path><path d="M540.808533 20.6848l397.7216 182.4768a54.613333 54.613333 0 0 1 0.8192 98.850133L548.386133 489.198933a68.266667 68.266667 0 0 1-58.914133 0L96.938667 301.329067A54.613333 54.613333 0 0 1 97.416533 202.752L483.259733 20.957867a68.266667 68.266667 0 0 1 57.5488-0.273067z" p-id="14322"></path></svg>