<?xml version="1.0" standalone="no"?><!DOCTYPE svg PUBLIC "-//W3C//DTD SVG 1.1//EN" "http://www.w3.org/Graphics/SVG/1.1/DTD/svg11.dtd"><svg t="1719216560491" class="icon" viewBox="0 0 1024 1024" version="1.1" xmlns="http://www.w3.org/2000/svg" p-id="22119" xmlns:xlink="http://www.w3.org/1999/xlink" width="64" height="64"><path d="M362.112 102.016C426.048 72.448 467.392 53.376 512 53.376c44.608 0 85.952 19.072 149.888 48.64l82.048 37.952c53.824 24.896 97.6 45.12 127.552 64.64 29.952 19.52 56.512 44.992 56.512 83.392s-26.56 63.872-56.512 83.392c-30.016 19.584-73.728 39.744-127.552 64.64l-82.048 37.952c-63.936 29.568-105.28 48.64-149.888 48.64-44.608 0-85.952-19.072-149.888-48.64l-82.048-37.952c-53.888-24.896-97.6-45.056-127.552-64.64C122.56 351.872 96 326.4 96 288s26.56-63.872 56.512-83.392c29.952-19.52 73.664-39.744 127.552-64.64l82.048-37.952zM196.096 656.768a43.392 43.392 0 0 1-6.656 59.968 42.176 42.176 0 0 0-9.728 10.112c-0.576 0.96-0.512 1.152-0.512 1.28v0.512c0.064 0.128 0.384 0.96 1.6 2.56 2.688 3.52 8.448 9.152 20.224 16.896 24.192 16 61.76 33.6 117.632 59.776l70.912 33.152c72.192 33.728 97.024 44.288 122.432 44.288s50.24-10.56 122.432-44.352l70.912-33.088c55.872-26.176 93.44-43.84 117.632-59.776 11.776-7.744 17.536-13.376 20.224-16.896 1.216-1.6 1.472-2.432 1.536-2.56l0.064-0.384v-0.128c0-0.128 0-0.32-0.512-1.28a42.048 42.048 0 0 0-9.728-10.112 43.392 43.392 0 0 1-6.656-59.968 40.96 40.96 0 0 1 58.496-6.784c22.272 18.24 41.6 43.328 41.6 78.272 0 44.16-30.336 72.064-60.032 91.648-29.888 19.648-73.024 39.872-124.928 64.128l-82.112 38.336c-60.928 28.544-103.168 48.32-148.928 48.32-45.76 0-88-19.84-148.928-48.32l-82.048-38.4c-51.904-24.192-95.104-44.416-124.928-64-29.76-19.648-60.096-47.616-60.096-91.712 0-34.944 19.264-60.032 41.6-78.272a40.96 40.96 0 0 1 58.496 6.784z" p-id="22120"></path><path d="M189.44 497.92a43.392 43.392 0 0 0 6.656-59.904 40.96 40.96 0 0 0-58.496-6.784c-22.336 18.176-41.6 43.264-41.6 78.208 0 44.16 30.336 72.128 60.096 91.712 29.824 19.648 72.96 39.808 124.928 64.064l82.048 38.4c60.928 28.48 103.168 48.256 148.928 48.256 45.76 0 88-19.776 148.928-48.32l82.048-38.336c51.904-24.256 95.104-44.416 124.992-64.064 29.696-19.584 60.032-47.552 60.032-91.712 0-34.944-19.328-60.032-41.6-78.208a40.96 40.96 0 0 0-58.496 6.784 43.392 43.392 0 0 0 6.656 59.904c6.208 5.12 8.768 8.512 9.728 10.112 0.512 0.96 0.512 1.216 0.512 1.344v0.512c-0.128 0.128-0.384 0.96-1.6 2.56a82.752 82.752 0 0 1-20.224 16.896c-24.192 15.936-61.76 33.6-117.632 59.712l-70.912 33.152c-72.192 33.728-97.024 44.352-122.432 44.352s-50.24-10.624-122.432-44.352L318.72 589.056c-55.872-26.112-93.44-43.776-117.632-59.712a82.56 82.56 0 0 1-20.224-16.96 10.368 10.368 0 0 1-1.536-2.56L179.2 509.44v-0.064c0-0.128 0-0.384 0.512-1.28a42.048 42.048 0 0 1 9.728-10.176z" p-id="22121"></path></svg>