<svg t="1720507599236" class="icon" viewBox="0 0 1024 1024" version="1.1" xmlns="http://www.w3.org/2000/svg" p-id="12280" width="64" height="64"><path d="M314.4 587.2v19.6c0 72.5 16.4 125.2 50.3 160.3 32.8 33.9 86.6 51.5 160.3 51.5 72.5 0 126.4-17.6 160.3-51.5 32.8-35.1 50.3-87.8 50.3-160.3v-19.6H314.4z m0-83.6h421.2V86.1h136.9v417.5h140.9v83.6H872.5v17.2c0 108.8-30.4 191.9-91.3 249.2-60.8 56.2-146.2 84.3-256.2 84.3-111.2 0-196.6-28.1-255.1-83.1-62-58.5-92.4-141.6-92.4-250.4v-17.2h-167v-83.6h167V86.1h136.9v417.5z" fill="" p-id="12281"></path></svg>