<?xml version="1.0" standalone="no"?><!DOCTYPE svg PUBLIC "-//W3C//DTD SVG 1.1//EN" "http://www.w3.org/Graphics/SVG/1.1/DTD/svg11.dtd"><svg t="1719216514769" class="icon" viewBox="0 0 1229 1024" version="1.1" xmlns="http://www.w3.org/2000/svg" p-id="19354" xmlns:xlink="http://www.w3.org/1999/xlink" width="76.8125" height="64"><path d="M0 68.266667 0 955.733333C0 993.416533 30.583467 1024 68.266667 1024L1160.533333 1024C1198.216533 1024 1228.8 993.416533 1228.8 955.733333L1228.8 68.266667C1228.8 30.583467 1198.216533 0 1160.533333 0L68.266667 0C30.583467 0 0 30.583467 0 68.266667ZM898.798933 71.202133C992.938667 71.202133 1069.4656 147.729067 1069.4656 241.8688 1069.4656 336.008533 992.938667 412.535467 898.798933 412.535467 804.727467 412.535467 728.132267 336.008533 728.132267 241.8688 728.132267 147.729067 804.727467 71.202133 898.798933 71.202133ZM1145.719467 803.157333 954.231467 611.669333 762.743467 803.157333 761.514667 801.860267 760.2176 803.157333 421.6832 464.622933 83.080533 803.2256 34.816 754.961067 421.000533 368.776533 421.614933 369.390933 422.2976 368.708267 761.514667 707.857067 905.966933 563.4048 904.3968 561.7664 952.661333 513.501867 954.231467 515.140267 955.869867 513.501867 1004.1344 561.7664 1002.496 563.4048 1193.984 754.8928 1145.719467 803.157333Z" p-id="19355" ></path></svg>