<svg t="1720105281650" class="icon" viewBox="0 0 1024 1024" version="1.1" xmlns="http://www.w3.org/2000/svg" p-id="4666" width="64" height="64"><path d="M503.2 902.2c-18.5 0-34.1-14.8-35-33.4-4.3-88.7-75-158.3-161-158.3-66.1 0-128.5-17.5-175.8-49.2-23.9-16.1-42.9-35-56.2-56.3-14.5-23-21.8-47.6-21.8-73.2 0-50.6 11.9-99.7 35.3-145.8 22.5-44.2 54.5-83.8 95.3-117.7 82.9-69 192.8-107 309.5-107 116.7 0 226.6 38 309.5 107 40.7 33.9 72.8 73.5 95.3 117.7 23.4 46.1 35.3 95.2 35.3 145.8 0 49.9-11.6 98.3-34.4 143.8-21.8 43.7-53.1 82.9-92.8 116.7-80.6 68.5-188 107.5-302.5 109.8-0.3 0.1-0.5 0.1-0.7 0.1z m-9.8-690.8c-215.1 0-390.1 143.7-390.1 320.4 0 32.5 19.9 63.7 55.9 87.9 39.1 26.3 91.7 40.7 147.9 40.7 107.9 0 197.4 82.8 209.8 191.2 203.4-10.1 366.5-151.2 366.5-319.8 0.1-176.7-174.9-320.4-390-320.4z" fill="#2c2c2c" p-id="4667"></path><path d="M602.5 767.8c-19.4 0-38.8-7.4-53.6-22.2-14.3-14.3-22.2-33.3-22.2-53.6s7.9-39.3 22.2-53.6c29.5-29.5 77.6-29.5 107.1 0s29.5 77.6 0 107.1c-14.7 14.9-34.1 22.3-53.5 22.3z m0-131.5c-14.3 0-28.6 5.4-39.4 16.3-10.5 10.5-16.3 24.5-16.3 39.4s5.8 28.9 16.3 39.4c21.7 21.7 57.1 21.7 78.9 0 21.7-21.7 21.7-57.1 0-78.9-10.9-10.8-25.2-16.2-39.5-16.2z" fill="#2c2c2c" p-id="4668"></path><path d="M738.9 383.8m-64.3 0a64.3 64.3 0 1 0 128.6 0 64.3 64.3 0 1 0-128.6 0Z" fill="#2c2c2c" p-id="4669"></path><path d="M557.8 285.2m-40.9 0a40.9 40.9 0 1 0 81.8 0 40.9 40.9 0 1 0-81.8 0Z" fill="#2c2c2c" p-id="4670"></path><path d="M376.6 285.4m-31.2 0a31.2 31.2 0 1 0 62.4 0 31.2 31.2 0 1 0-62.4 0Z" fill="#2c2c2c" p-id="4671"></path></svg>