<svg width="18" height="18" viewBox="0 0 18 18" fill="" xmlns="http://www.w3.org/2000/svg">
<path id="icon" d="M6.9187 4.01233H15.4959L12.9204 1.4039C12.8195 1.30178 12.747 1.17458 12.7101 1.0351C12.6732 0.895626 12.6733 0.748776 12.7102 0.609316C12.7472 0.469878 12.8198 0.342749 12.9207 0.240701C13.0216 0.138654 13.1473 0.0652807 13.2851 0.0279547C13.4229 -0.00936325 13.5679 -0.00931739 13.7057 0.0280876C13.8434 0.0654925 13.969 0.138939 14.0699 0.241045L17.5284 3.74088C17.8309 4.04611 17.9983 4.45674 17.9999 4.89294C18.002 5.10903 17.9613 5.32337 17.8804 5.52333C17.7994 5.72329 17.6797 5.90483 17.5284 6.05729L14.0699 9.55873C13.9178 9.71356 13.7108 9.80071 13.4951 9.80071C13.2794 9.80071 13.0725 9.71356 12.9204 9.55873C12.8448 9.48238 12.7848 9.39169 12.7439 9.29185C12.703 9.19201 12.6819 9.08498 12.6819 8.97689C12.6819 8.86881 12.703 8.7618 12.7439 8.66197C12.7848 8.56215 12.8448 8.47147 12.9204 8.39514L15.6325 5.65661H6.9187C3.99994 5.65661 1.62602 8.0561 1.62602 11.0054C1.62602 13.9546 3.99994 16.3541 6.9187 16.3541H12.5935C13.0424 16.3541 13.4065 16.7226 13.4065 17.177C13.4065 17.6315 13.0424 18 12.5935 18H6.91868C3.10399 18 0 14.8623 0 11.0054C0 7.14844 3.10397 4.01073 6.91868 4.01073" fill=""/>
</svg>
