<svg xmlns="http://www.w3.org/2000/svg" width="1em" height="1em" viewBox="0 0 24 24"><path fill="currentColor" d="M6.006 10q-1.658 0-2.832-1.17T2 6.003q0-1.679 1.17-2.84Q4.338 2 5.997 2q1.679 0 2.84 1.158Q10 4.317 10 5.994q0 1.658-1.158 2.832Q7.683 10 6.006 10m10.61 12q-.667 0-1.141-.475T15 20.386v-3.77q0-.666.475-1.14t1.14-.475h3.77q.666 0 1.14.475t.475 1.14v3.77q0 .666-.475 1.14t-1.14.475zm.609-14.511L7.489 17.2q.125.223.202.486q.078.262.078.545q0 .833-.573 1.416q-.574.584-1.422.584q-.832 0-1.418-.584t-.587-1.418q0-.85.584-1.424q.583-.574 1.416-.574q.283 0 .546.078q.262.077.485.202l9.712-9.736q-.125-.223-.203-.474q-.078-.25-.078-.532q0-.85.584-1.425t1.417-.575q.85 0 1.425.574q.574.574.574 1.422q0 .831-.575 1.418t-1.425.586q-.281 0-.532-.078q-.251-.077-.474-.202"/></svg>