<svg width="20" height="20" viewBox="0 0 20 20" fill="none" xmlns="http://www.w3.org/2000/svg">
<g id="icon">
<path id="Vector" d="M17.2656 1.08e-07C17.715 1.08e-07 18.1458 0.176839 18.4632 0.491697L19.5027 1.51822C20.1648 2.17274 20.1659 3.23377 19.5049 3.88937L17.091 6.27345L17.4859 6.66379L17.5775 6.76515C17.7404 6.97265 17.821 7.23183 17.8041 7.49395C17.7873 7.75607 17.6741 8.00306 17.4859 8.18848L16.7213 8.94328C16.5171 9.14538 16.2401 9.25912 15.9511 9.25953C15.6621 9.25993 15.3848 9.14697 15.18 8.94544L15.1549 8.92064L5.63466 18.2888C5.25507 18.6662 4.76204 18.9077 4.23083 18.9789L4.03122 18.9972L3.64072 19.3811C3.4435 19.5778 3.20866 19.7339 2.94987 19.8402C2.69108 19.9464 2.4135 20.0007 2.13328 20C1.72692 19.9997 1.32909 19.8848 0.986516 19.6688C0.643946 19.4527 0.370875 19.1445 0.199392 18.7803C0.0279086 18.4161 -0.0348619 18.0111 0.018457 17.6129C0.071776 17.2147 0.238969 16.8398 0.500388 16.5322L0.624737 16.3985L1.01305 16.0157C1.0425 15.4841 1.24757 14.9795 1.59334 14.5762L1.72969 14.4296L11.2521 5.0593L11.1442 4.95363L10.9554 4.76709L10.8638 4.66465C10.701 4.45719 10.6204 4.19813 10.6371 3.93608C10.6537 3.67403 10.7666 3.42699 10.9544 3.24132L11.7179 2.48652C11.9224 2.28437 12.1998 2.17081 12.4891 2.17081C12.7783 2.17081 13.0557 2.28437 13.2603 2.48652L13.654 2.87686L16.0668 0.491697C16.224 0.335771 16.4109 0.21207 16.6166 0.127693C16.8223 0.0433151 17.0428 -7.90125e-05 17.2656 1.08e-07ZM12.0222 5.82273L2.50087 15.1909C2.29689 15.3936 2.16273 15.6534 2.11691 15.9327L2.10164 16.074L2.07874 16.4859L1.397 17.1598C1.21412 17.3457 1.10873 17.5928 1.10179 17.852C1.09485 18.1112 1.18688 18.3635 1.35956 18.5587C1.53225 18.7538 1.77293 18.8776 2.03373 18.9053C2.29452 18.933 2.55631 18.8626 2.76701 18.7082L2.87064 18.6176L3.55673 17.9405L3.9745 17.9189C4.26137 17.9038 4.53407 17.8003 4.75768 17.6191L4.86566 17.5232L14.3827 8.15721L12.0222 5.82057V5.82273Z" fill="currentColor"/>
</g>
</svg>
