<svg t="1719245337386" class="icon" viewBox="0 0 1024 1024" version="1.1" xmlns="http://www.w3.org/2000/svg" p-id="14176" width="200" height="200"><path d="M554.713424 907.893452c-27.720671 0-50.271746-22.55005-50.271745-50.26765V489.922985c0-27.722719 22.55005-50.26765 50.271745-50.26765h326.848769c27.714528 0 50.262531 22.544931 50.262531 50.26765v367.702817c0 27.716576-22.546979 50.26765-50.262531 50.26765H554.713424z m-408.560961 0c-27.720671 0-50.264578-22.55005-50.264578-50.26765V694.205513c0-27.7176 22.544931-50.275841 50.264578-50.275841h245.132481c27.726815 0 50.272769 22.557218 50.27277 50.275841v163.420289c0 27.716576-22.545955 50.26765-50.27277 50.26765H146.152463z m0-326.851841c-27.720671 0-50.264578-22.544931-50.264578-50.270721V163.072168c0-27.721695 22.544931-50.268674 50.264578-50.268674h245.132481c27.726815 0 50.272769 22.546979 50.27277 50.268674v367.698722c0 27.725791-22.545955 50.270722-50.27277 50.270721H146.152463z m408.560961-204.278432c-27.720671 0-50.271746-22.552098-50.271745-50.275842V163.072168c0-27.721695 22.55005-50.268674 50.271745-50.268674h326.848769c27.714528 0 50.262531 22.546979 50.262531 50.268674v163.416193c0 27.722719-22.546979 50.275841-50.262531 50.275841H554.713424z" p-id="14177"></path></svg>