<svg width="18" height="18" viewBox="0 0 18 18" fill="" xmlns="http://www.w3.org/2000/svg">
<path id="icon" d="M11.0813 4.01233H2.50413L5.07962 1.4039C5.18047 1.30178 5.25299 1.17458 5.28987 1.0351C5.32676 0.895626 5.32673 0.748776 5.28977 0.609316C5.25278 0.469878 5.18018 0.342749 5.07928 0.240701C4.97837 0.138654 4.85271 0.0652807 4.71492 0.0279547C4.57714 -0.00936325 4.43208 -0.00931739 4.29432 0.0280876C4.15657 0.0654925 4.03096 0.138939 3.93014 0.241045L0.471613 3.74088C0.169144 4.04611 0.00168507 4.45674 7.55108e-05 4.89294C-0.00199799 5.10903 0.0386509 5.32337 0.119631 5.52333C0.20061 5.72329 0.320285 5.90483 0.471613 6.05729L3.93014 9.55873C4.08223 9.71356 4.28916 9.80071 4.5049 9.80071C4.72065 9.80071 4.92753 9.71356 5.07962 9.55873C5.15522 9.48238 5.2152 9.39169 5.25611 9.29185C5.29703 9.19201 5.31807 9.08498 5.31805 8.97689C5.31806 8.86881 5.29701 8.7618 5.25609 8.66197C5.21518 8.56215 5.15521 8.47147 5.07962 8.39514L2.36753 5.65661H11.0813C14.0001 5.65661 16.374 8.0561 16.374 11.0054C16.374 13.9546 14.0001 16.3541 11.0813 16.3541H5.40652C4.95755 16.3541 4.59347 16.7226 4.59347 17.177C4.59347 17.6315 4.95755 18 5.40652 18H11.0813C14.896 18 18 14.8623 18 11.0054C18 7.14844 14.896 4.01073 11.0813 4.01073" fill=""/>
</svg>
