<svg t="1719374043648" class="icon" viewBox="0 0 1024 1024" version="1.1" xmlns="http://www.w3.org/2000/svg" p-id="4280" width="64" height="64"><path d="M544 85.312a32 32 0 0 0-64 0v96h-33.344c-18.816 0-34.944 0-48.256 1.28-14.08 1.216-27.968 4.032-41.088 11.584-27.904 16.128-39.872 40.96-44.672 64.64-3.712 18.176-3.52 38.144-3.328 53.376v15.616c-0.192 15.168-0.384 35.2 3.328 53.44 4.8 23.616 16.768 48.448 44.672 64.576 13.12 7.552 27.072 10.368 41.088 11.648 13.312 1.216 29.44 1.216 48.256 1.216h33.28v106.624H276.032c-18.752 0-34.944 0-48.256 1.28-14.08 1.216-27.904 4.032-41.024 11.584-27.904 16.128-39.872 40.96-44.736 64.64-3.712 18.176-3.456 38.144-3.328 53.376a810.56 810.56 0 0 1 0 15.616c-0.128 15.232-0.384 35.2 3.328 53.44 4.864 23.616 16.832 48.448 44.736 64.576 13.12 7.552 27.008 10.368 41.024 11.648 13.312 1.216 29.44 1.216 48.256 1.216H480v96a32 32 0 1 0 64 0v-96h204.032c18.752 0 34.944 0 48.256-1.28 14.08-1.216 27.968-4.032 41.024-11.584 27.968-16.128 39.936-40.96 44.736-64.64 3.712-18.176 3.52-38.144 3.328-53.376V704v-7.808c0.192-15.232 0.384-35.2-3.328-53.44-4.8-23.616-16.768-48.448-44.736-64.576a97.408 97.408 0 0 0-41.024-11.648c-13.312-1.216-29.44-1.216-48.256-1.216H544V458.688h33.408c18.752 0 34.944 0 48.192-1.28 14.08-1.216 27.968-4.032 41.088-11.584 27.904-16.128 39.872-40.96 44.672-64.64 3.712-18.176 3.52-38.208 3.392-53.376a693.568 693.568 0 0 1 0-15.616c0.128-15.168 0.32-35.2-3.392-53.44-4.8-23.616-16.768-48.448-44.672-64.576a97.344 97.344 0 0 0-41.088-11.648c-13.248-1.216-29.44-1.216-48.192-1.216H544v-96z" fill="#333333" p-id="4281"></path></svg>