<?xml version="1.0" encoding="UTF-8"?>
<!DOCTYPE svg PUBLIC "-//W3C//DTD SVG 1.1//EN" "http://www.w3.org/Graphics/SVG/1.1/DTD/svg11.dtd">
<svg xmlns="http://www.w3.org/2000/svg" version="1.1" width="238px" height="258px" style="shape-rendering:geometricPrecision; text-rendering:geometricPrecision; image-rendering:optimizeQuality; fill-rule:evenodd; clip-rule:evenodd" xmlns:xlink="http://www.w3.org/1999/xlink">
<g><path style="opacity:0.976" fill="#eda78a" d="M 124.5,2.5 C 134.716,4.21801 137.883,9.88468 134,19.5C 127.281,25.0882 121.281,24.4216 116,17.5C 113.992,9.6894 116.825,4.6894 124.5,2.5 Z"/></g>
<g><path style="opacity:0.976" fill="#eca58a" d="M 181.5,12.5 C 191.9,14.8538 194.734,20.8538 190,30.5C 180.339,35.8914 174.173,33.2247 171.5,22.5C 172.585,16.748 175.918,13.4147 181.5,12.5 Z"/></g>
<g><path style="opacity:0.969" fill="#eda68a" d="M 67.5,19.5 C 78.9017,19.401 82.735,24.7343 79,35.5C 72.7035,42.0414 66.7035,41.7081 61,34.5C 60.3333,31.5 60.3333,28.5 61,25.5C 62.914,23.1435 65.0807,21.1435 67.5,19.5 Z"/></g>
<g><path style="opacity:0.8" fill="#e52b36" d="M 124.5,34.5 C 133.718,34.0364 136.718,38.0364 133.5,46.5C 126.737,51.129 122.07,49.4623 119.5,41.5C 120.065,38.2842 121.732,35.9509 124.5,34.5 Z"/></g>
<g><path style="opacity:0.8" fill="#e62b35" d="M 167.5,44.5 C 176.33,43.1621 179.83,46.8288 178,55.5C 174.038,60.4052 169.704,60.7385 165,56.5C 162.696,51.8553 163.529,47.8553 167.5,44.5 Z"/></g>
<g><path style="opacity:0.962" fill="#eca58a" d="M 237.5,53.5 C 237.5,56.5 237.5,59.5 237.5,62.5C 231.811,69.9969 225.644,70.3302 219,63.5C 215.255,52.5882 219.088,47.4215 230.5,48C 233.621,48.9668 235.954,50.8001 237.5,53.5 Z"/></g>
<g><path style="opacity:0.8" fill="#e52c36" d="M 89.5,48.5 C 96.6476,49.4965 99.1476,53.4965 97,60.5C 90.1622,66.3871 85.3288,65.0537 82.5,56.5C 83.4804,52.5269 85.8137,49.8602 89.5,48.5 Z"/></g>
<g><path style="opacity:0.971" fill="#eea78b" d="M 26.5,59.5 C 34.2023,58.5306 38.869,61.864 40.5,69.5C 38.694,77.7353 33.694,80.902 25.5,79C 18.9832,74.7554 17.8165,69.2554 22,62.5C 23.6516,61.6006 25.1516,60.6006 26.5,59.5 Z"/></g>
<g><path style="opacity:0.8" fill="#e72e36" d="M 202.5,69.5 C 210.179,70.0177 213.012,74.0177 211,81.5C 204.447,87.0432 199.614,85.7098 196.5,77.5C 197.075,73.6508 199.075,70.9842 202.5,69.5 Z"/></g>
<g><path style="opacity:0.8" fill="#e72834" d="M 57.5,78.5 C 65.1609,77.663 68.6609,80.9964 68,88.5C 63.8292,94.729 59.1626,95.0623 54,89.5C 52.8824,85.0767 54.0491,81.41 57.5,78.5 Z"/></g>
<g><path style="opacity:0.965" fill="#eda78b" d="M 9.5,112.5 C 19.4529,112.096 23.6196,116.763 22,126.5C 18.1786,133.782 12.6786,135.282 5.5,131C 0.603978,123.415 1.93731,117.248 9.5,112.5 Z"/></g>
<g><path style="opacity:0.8" fill="#e52b36" d="M 44.5,115.5 C 52.5214,115.885 55.3548,119.885 53,127.5C 48.6667,131.5 44.3333,131.5 40,127.5C 38.0267,122.258 39.5267,118.258 44.5,115.5 Z"/></g>
<g><path style="opacity:0.8" fill="#e52c36" d="M 52.5,157.5 C 62.197,157.72 64.8636,162.22 60.5,171C 50.5731,174.071 46.7398,170.571 49,160.5C 50.1451,159.364 51.3117,158.364 52.5,157.5 Z"/></g>
<g><path style="opacity:0.977" fill="#eea68a" d="M 20.5,167.5 C 30.9762,168.131 34.8095,173.464 32,183.5C 28.1,188.533 23.2667,189.7 17.5,187C 10.5574,179.316 11.5574,172.816 20.5,167.5 Z"/></g>
<g><path style="opacity:0.8" fill="#e82e36" d="M 195.5,183.5 C 203.549,183.952 206.382,187.952 204,195.5C 199.667,199.5 195.333,199.5 191,195.5C 189.029,190.249 190.529,186.249 195.5,183.5 Z"/></g>
<g><path style="opacity:0.8" fill="#e52c36" d="M 79.5,190.5 C 88.7213,191.109 91.3879,195.609 87.5,204C 78.648,207.672 74.4813,204.839 75,195.5C 76.025,193.313 77.525,191.646 79.5,190.5 Z"/></g>
<g><path style="opacity:0.972" fill="#eea68a" d="M 215.5,202.5 C 227.109,203.261 230.609,208.928 226,219.5C 220.001,224.968 214.335,224.634 209,218.5C 206.464,211.24 208.631,205.907 215.5,202.5 Z"/></g>
<g><path style="opacity:0.8" fill="#e22b36" d="M 157.5,203.5 C 163.184,203.011 166.851,205.511 168.5,211C 165.706,218.995 160.873,220.495 154,215.5C 151.841,210.482 153.007,206.482 157.5,203.5 Z"/></g>
<g><path style="opacity:0.8" fill="#e52c36" d="M 114.5,206.5 C 124.493,205.642 127.827,209.809 124.5,219C 114.937,223.113 110.771,219.946 112,209.5C 113.045,208.627 113.878,207.627 114.5,206.5 Z"/></g>
<g><path style="opacity:0.965" fill="#efa98c" d="M 54.5,212.5 C 64.9884,211.487 69.4884,216.154 68,226.5C 63.7554,233.017 58.2554,234.183 51.5,230C 46.8358,223.131 47.8358,217.297 54.5,212.5 Z"/></g>
<g><path style="opacity:0.977" fill="#eca589" d="M 166.5,231.5 C 177.681,232.54 181.181,238.206 177,248.5C 170.231,254.259 164.231,253.592 159,246.5C 157.289,239.254 159.789,234.254 166.5,231.5 Z"/></g>
<g><path style="opacity:0.964" fill="#eda78b" d="M 107.5,235.5 C 119.793,235.416 123.626,241.082 119,252.5C 111.561,257.44 105.561,256.106 101,248.5C 100.011,242.477 102.178,238.144 107.5,235.5 Z"/></g>
</svg>
